<?xml version="1.0" standalone="no"?>
<!DOCTYPE svg PUBLIC "-//W3C//DTD SVG 20010904//EN"
 "http://www.w3.org/TR/2001/REC-SVG-20010904/DTD/svg10.dtd">
<svg version="1.0" xmlns="http://www.w3.org/2000/svg"
 width="700.000000pt" height="700.000000pt" viewBox="0 0 700.000000 700.000000"
 preserveAspectRatio="xMidYMid meet">
<metadata>
Created by potrace 1.11, written by Peter Selinger 2001-2013
</metadata>
<g transform="translate(0.000000,700.000000) scale(0.100000,-0.100000)"
fill="#000000" stroke="none">
<path d="M3368 6995 c-2 -1 -39 -5 -83 -9 -116 -9 -136 -11 -370 -51 -66 -11
-275 -69 -366 -101 -53 -19 -100 -34 -104 -34 -18 0 -292 -128 -392 -184 -107
-59 -316 -201 -369 -251 -6 -5 -35 -30 -65 -55 -86 -72 -222 -211 -294 -301
-11 -13 -36 -45 -56 -69 -123 -154 -268 -434 -331 -640 -21 -70 -42 -130 -108
-310 -41 -115 -99 -315 -119 -420 -6 -30 -14 -66 -16 -80 -10 -48 -24 -125
-29 -165 -3 -22 -8 -56 -11 -75 -10 -61 -15 -103 -20 -160 -3 -30 -7 -68 -10
-85 -31 -226 -25 -862 11 -1145 17 -140 27 -206 50 -341 4 -24 1 -27 -33 -33
-144 -24 -326 -67 -356 -85 -120 -69 -126 -402 -10 -513 71 -68 117 -47 293
131 149 152 184 172 196 117 3 -17 23 -81 44 -143 40 -118 49 -211 30 -314 -5
-24 -11 -62 -14 -84 -4 -23 -8 -50 -10 -60 -26 -126 -67 -351 -72 -390 -28
-213 13 -373 114 -440 58 -38 140 -62 203 -59 145 7 369 159 369 250 0 29 -4
33 -54 54 -73 29 -116 82 -151 185 -36 104 -56 225 -37 225 6 0 14 -5 17 -10
13 -21 84 -59 139 -75 99 -29 206 -11 297 50 21 14 41 25 43 25 10 0 45 -125
61 -220 19 -111 50 -245 72 -313 23 -68 33 -84 85 -132 105 -98 233 -143 415
-147 89 -2 93 -1 130 28 78 63 141 241 147 417 4 100 -2 143 -31 209 -22 51
-60 67 -153 64 -98 -3 -185 10 -235 33 -71 33 -142 120 -223 272 l-39 74 52
110 c54 113 111 262 141 374 10 35 24 66 33 69 14 5 111 -40 135 -63 6 -6 20
-17 32 -25 12 -8 58 -49 103 -90 126 -115 218 -170 284 -170 112 0 230 189
231 370 0 116 -35 171 -119 186 -30 5 -435 89 -533 110 -59 13 -72 19 -68 33
3 9 10 51 17 94 6 43 17 77 23 77 6 0 52 -17 101 -39 97 -42 309 -114 402
-137 32 -8 67 -17 78 -19 11 -3 31 -7 45 -10 23 -4 99 -19 145 -28 11 -3 47
-8 80 -12 33 -4 71 -9 85 -11 76 -10 193 -16 335 -18 192 -2 277 3 269 15 -3
5 7 9 23 10 15 0 35 2 43 3 8 2 43 6 78 10 240 25 485 114 585 212 140 138 94
397 -86 474 -76 33 -134 24 -244 -37 -113 -64 -184 -90 -308 -114 -102 -20
-381 -36 -372 -22 18 32 103 217 117 257 30 84 7 145 -67 182 -33 16 -61 19
-195 18 -135 0 -158 2 -163 15 -4 15 -9 51 -20 151 -10 87 -4 325 10 420 57
373 180 678 389 960 82 111 271 303 371 378 l70 53 20 -44 c11 -23 27 -61 35
-82 41 -107 102 -190 162 -221 42 -22 108 -20 156 5 59 30 104 87 287 366
l168 255 101 -6 c56 -3 112 -7 126 -9 75 -11 112 -19 187 -41 46 -13 85 -24
88 -24 3 0 2 -35 -3 -77 -12 -134 -8 -244 12 -283 39 -75 91 -108 175 -107 70
0 118 15 269 83 29 13 57 24 61 24 16 0 128 -147 180 -234 80 -136 162 -335
186 -453 8 -42 21 -50 23 -15 3 59 2 299 -2 332 -3 19 -7 56 -10 81 -35 284
-152 593 -323 852 -92 139 -171 236 -298 362 -341 343 -783 588 -1295 720
-102 26 -286 60 -385 71 -33 3 -73 8 -90 11 -32 5 -482 13 -487 8z m-766
-1204 c86 -30 143 -67 201 -131 243 -270 139 -686 -202 -806 -183 -65 -414 8
-535 169 -41 55 -94 205 -99 277 -14 227 143 440 368 501 77 21 191 17 267
-10z"/>
</g>
</svg>
