<svg xmlns="http://www.w3.org/2000/svg" style="display: none;">

<symbol id="icon-player"
x="0px" y="0px"
	 viewBox="0 0 58 58" style="enable-background:new 0 0 58 58;" xml:space="preserve">
<rect x="8" y="6" style="fill:#EF6129;" width="42" height="46"/>
<g>
	<rect x="50" y="10" style="fill:#EBBA16;" width="4" height="38"/>
	<rect x="4" y="10" style="fill:#EBBA16;" width="4" height="38"/>
</g>
<g>
	<rect x="54" y="14" style="fill:#EFCE4A;" width="4" height="30"/>
	<rect y="14" style="fill:#EFCE4A;" width="4" height="30"/>
</g>
<path style="fill:#FFFFFF;" d="M43.649,12.24c-0.222-0.19-0.515-0.273-0.805-0.228l-19,3C23.358,15.089,23,15.508,23,16v3.286V22
	v13.68C21.831,34.642,20.246,34,18.5,34c-3.584,0-6.5,2.691-6.5,6s2.916,6,6.5,6c3.533,0,6.411-2.617,6.492-5.861
	C24.993,40.126,25,40.115,25,40.102V22.854l17-2.684v9.511C40.831,28.642,39.246,28,37.5,28c-3.584,0-6.5,2.691-6.5,6s2.916,6,6.5,6
	s6.5-2.691,6.5-6V19v-5v-1C44,12.708,43.872,12.43,43.649,12.24z"/>
</symbol>

<symbol id="icon-folder" x="0px" y="0px"
	 width="507.177px" height="507.177px" viewBox="0 0 507.177 507.177" style="enable-background:new 0 0 507.177 507.177;"
	 >
	<path d="M382.237,420.524c11.278,0,24.519-7.294,29.342-17.236l93.815-177.539c5.615-10.802-2.548-17.239-17.236-17.239H393.42
		v-42.421c0-14.641-11.91-26.551-26.551-26.551H134.943l-17.207-45.167c-1.791-4.69-6.289-7.793-11.313-7.793H12.335
		c-3.218,0-6.312,1.283-8.588,3.57c-2.27,2.288-3.535,5.379-3.517,8.606l0.23,67.335L0,394.049C0,408.69,11.913,420.6,26.554,420.6
		 M369.209,208.516H162.634c-9.522,0-18.527,7.696-23.291,17.239L54.994,396.39H26.554c-1.289,0-2.344-1.052-2.344-2.341V166.024
		l-0.012-55.23h73.884l17.209,45.164c1.791,4.69,6.286,7.796,11.31,7.796H366.87c1.288,0,2.34,1.052,2.34,2.341V208.516z"/>
</symbol>

</svg>
