<?xml version="1.0" standalone="no"?>
<!DOCTYPE svg PUBLIC "-//W3C//DTD SVG 20010904//EN"
 "http://www.w3.org/TR/2001/REC-SVG-20010904/DTD/svg10.dtd">
<svg version="1.0" xmlns="http://www.w3.org/2000/svg"
 width="700.000000pt" height="700.000000pt" viewBox="0 0 700.000000 700.000000"
 preserveAspectRatio="xMidYMid meet">
<metadata>
Created by potrace 1.11, written by Peter Selinger 2001-2013
</metadata>
<g transform="translate(0.000000,700.000000) scale(0.100000,-0.100000)"
fill="#000000" stroke="none">
<path d="M3454 6991 c-12 -5 -31 -22 -43 -37 -21 -26 -21 -33 -21 -435 0 -272
4 -416 11 -432 23 -51 94 -71 149 -42 59 31 60 35 60 470 0 411 -2 429 -42
463 -19 16 -89 23 -114 13z"/>
<path d="M1731 6484 c-16 -7 -36 -25 -44 -41 -30 -57 -18 -86 118 -298 29 -44
78 -120 109 -170 179 -280 194 -302 225 -314 45 -19 95 -6 126 31 22 27 26 39
23 73 -5 40 -23 72 -176 310 -25 39 -59 93 -77 120 -123 195 -180 277 -199
287 -30 16 -70 17 -105 2z"/>
<path d="M5227 6451 c-23 -12 -69 -70 -165 -211 -73 -107 -136 -202 -140 -210
-4 -8 -43 -69 -87 -135 -73 -109 -80 -124 -79 -167 0 -40 5 -52 30 -73 16 -14
36 -25 44 -26 35 -3 66 4 88 17 33 21 462 671 462 700 0 45 -40 111 -69 115
-40 5 -57 3 -84 -10z"/>
<path d="M3355 5493 c-33 -4 -205 -30 -246 -38 -168 -32 -450 -152 -595 -252
-6 -5 -24 -17 -40 -28 -178 -121 -360 -310 -489 -508 -114 -175 -222 -440
-251 -617 -2 -14 -9 -54 -16 -90 -21 -109 -16 -444 7 -565 60 -305 163 -543
333 -771 72 -96 76 -101 211 -239 137 -141 188 -230 240 -419 36 -131 48 -222
57 -416 7 -151 18 -185 67 -204 44 -18 1711 -17 1742 1 51 28 58 47 61 161 2
111 10 211 20 272 29 173 63 289 119 399 38 76 90 141 215 271 232 240 408
568 466 865 2 11 8 43 13 70 25 130 34 351 20 492 -68 666 -512 1250 -1138
1497 -98 39 -282 89 -366 101 -27 3 -66 9 -85 12 -40 5 -300 10 -345 6z"/>
<path d="M639 5321 c-54 -29 -71 -106 -35 -164 6 -10 49 -39 96 -64 47 -25
108 -58 135 -73 91 -50 299 -162 391 -211 114 -61 151 -64 200 -15 27 27 34
42 34 74 0 68 -14 79 -265 212 -44 24 -129 70 -190 103 -311 169 -309 168
-366 138z"/>
<path d="M6187 5281 c-86 -45 -149 -78 -282 -151 -27 -15 -77 -42 -110 -60
-33 -18 -94 -50 -135 -73 -41 -22 -83 -48 -93 -59 -60 -62 -24 -167 64 -183
36 -7 69 8 295 130 38 21 92 50 119 65 28 15 75 41 105 57 30 17 95 52 143 78
98 53 128 87 121 139 -5 44 -21 70 -54 89 -44 26 -72 21 -173 -32z"/>
<path d="M2699 1174 c-98 -30 -178 -135 -182 -238 -3 -85 20 -144 79 -203 85
-85 44 -82 924 -80 857 2 802 -2 883 75 53 50 78 104 83 174 7 111 -54 214
-156 262 -44 21 -54 21 -815 23 -639 1 -778 -1 -816 -13z"/>
<path d="M2926 525 c-88 -23 -155 -90 -182 -184 -29 -99 -4 -193 72 -266 78
-76 67 -75 684 -75 608 0 601 0 679 67 65 55 85 103 86 198 0 119 -47 195
-153 246 l-47 24 -547 0 c-379 1 -561 -2 -592 -10z"/>
</g>
</svg>
