<?xml version="1.0" standalone="no"?>
<!DOCTYPE svg PUBLIC "-//W3C//DTD SVG 20010904//EN"
 "http://www.w3.org/TR/2001/REC-SVG-20010904/DTD/svg10.dtd">
<svg version="1.0" xmlns="http://www.w3.org/2000/svg"
 width="700.000000pt" height="700.000000pt" viewBox="0 0 700.000000 700.000000"
 preserveAspectRatio="xMidYMid meet">
<metadata>
Created by potrace 1.11, written by Peter Selinger 2001-2013
</metadata>
<g transform="translate(0.000000,700.000000) scale(0.100000,-0.100000)"
fill="#000000" stroke="none">
<path d="M3387 6914 c-1 -1 -51 -4 -112 -8 -60 -4 -123 -8 -140 -10 -16 -2
-59 -6 -95 -10 -36 -4 -85 -11 -110 -16 -25 -5 -61 -12 -80 -15 -177 -26 -494
-119 -696 -205 -932 -396 -1637 -1147 -1967 -2096 -40 -115 -107 -363 -121
-449 -3 -16 -10 -55 -16 -85 -6 -30 -13 -77 -16 -105 -3 -27 -7 -61 -10 -75
-26 -161 -25 -693 1 -862 2 -13 6 -45 10 -71 4 -27 8 -57 10 -67 2 -9 6 -33 9
-51 3 -19 8 -45 11 -59 2 -14 10 -50 16 -80 60 -297 216 -701 371 -959 21 -34
38 -65 38 -67 0 -9 146 -223 214 -314 245 -328 583 -643 906 -846 226 -143
444 -249 703 -343 158 -58 251 -39 303 62 15 28 17 72 15 377 -1 189 -4 346
-6 348 -2 2 -45 -3 -97 -12 -86 -15 -289 -21 -383 -11 -211 21 -318 51 -430
119 -131 80 -200 164 -266 323 -56 133 -80 179 -145 275 -76 111 -124 160
-221 224 -92 61 -153 128 -153 168 0 83 232 73 391 -17 137 -77 210 -147 308
-297 123 -188 246 -295 400 -347 58 -19 82 -21 201 -18 166 4 191 8 309 48
l95 32 21 90 c38 158 84 253 163 337 36 39 41 48 26 49 -11 0 -28 2 -39 4 -11
2 -40 7 -65 10 -183 23 -393 75 -532 131 -441 177 -680 420 -828 839 -31 88
-73 259 -84 340 -24 174 -25 200 -26 360 -1 160 3 216 26 335 42 213 137 415
271 575 l58 70 -13 40 c-13 37 -26 83 -37 130 -26 111 -27 351 -1 475 18 87
69 254 85 279 11 16 103 19 186 7 54 -9 226 -66 289 -97 22 -10 43 -19 48 -19
27 0 251 -119 372 -198 l68 -45 92 21 c173 41 316 66 436 77 36 3 86 8 111 11
111 12 492 5 589 -11 14 -2 54 -7 90 -11 70 -6 264 -44 371 -71 l65 -16 120
74 c65 41 164 96 219 123 55 27 108 53 117 57 10 5 66 27 124 49 154 58 228
70 360 61 18 -1 27 -17 53 -95 28 -87 49 -167 66 -256 4 -19 8 -97 10 -172 2
-140 -12 -243 -49 -348 -22 -63 -21 -66 28 -123 114 -135 230 -357 262 -502
15 -63 35 -175 39 -205 5 -48 6 -359 1 -390 -3 -14 -7 -52 -10 -85 -3 -33 -8
-73 -11 -90 -29 -162 -42 -217 -78 -325 -126 -383 -322 -612 -672 -788 -175
-87 -310 -135 -470 -167 -125 -24 -244 -44 -305 -50 -14 -2 -29 -3 -33 -4 -5
-1 11 -23 35 -50 58 -66 102 -142 133 -230 48 -137 53 -203 54 -802 1 -381 5
-568 12 -590 26 -76 91 -116 181 -111 93 5 529 192 713 305 175 107 396 265
493 350 120 107 262 248 358 358 248 283 477 643 599 946 20 48 40 97 45 108
20 43 98 280 106 321 1 6 9 36 17 65 8 30 20 79 26 109 6 30 14 66 16 80 8 37
34 199 40 245 27 212 27 679 0 865 -2 14 -6 46 -9 72 -49 392 -201 843 -409
1213 -58 104 -188 304 -239 370 -169 217 -233 290 -393 446 -446 435 -1052
760 -1670 895 -66 15 -286 50 -365 59 -98 10 -494 26 -503 19z"/>
</g>
</svg>
